<svg width="57" height="56" fill="none" xmlns="http://www.w3.org/2000/svg"><g clip-path="url(#clip0_2386_8244)"><path d="M20.126 37.038c0-.306-.034-.612-.034-.918-.275-1.699-1.373-2.786-2.78-3.602-2.573-1.529-5.49-2.14-8.407-2.684-2.196-.408-4.323-1.02-6.176-2.345-.309-.238-.686-.442-.618-.883.103-.986-.206-1.87-.583-2.753-.24-.611-.069-1.121.48-1.325.618-.238 1.236-.68 1.956-.204.927.646 1.373 1.801 2.642 2.14.72.205 1.098.273 1.544-.339.275-.374.721-.713 1.236-.408.514.306.926.17 1.407-.102.789-.407 1.098-.237 1.063.646-.034.782.378.85.858.476.412-.34.824-.408 1.338-.374a2.779 2.779 0 001.476-.34c.412-.238.617-.951 1.2-.408.344.34 1.064.204 1.099.952 0 .272.309.442.583.34.206-.102.515-.102.515-.544 0-.476.412-.612.823-.408.172.068.206.408.412.306.79-.374 1.785-.34 2.402-.985.515-.544.824-.578 1.235.034.24.34.687.407 1.03.17.343-.272.137-.714-.103-.918-.618-.476-1.304-1.02-2.059-.985-.686.034-1.304 0-1.921-.238-.206-.068-.618.068-.584-.306.035-.34.378-.374.652-.442 1.304-.238 2.574-.578 3.912-.442.79.068.995-.645 1.235-1.053.275-.442-.446-.51-.789-.68-.172-.068-.412-.136-.412-.34 0-.271.309-.34.48-.373.515-.068.858-.238.996-.816.103-.407.617-.577.995-.645.755-.102 1.51-.272 2.265.068.686.305.995.034.857-.646a1.215 1.215 0 01.344-1.087c.24-.238.617-.408.926-.136.24.204.583.441.48.85-.034.475-.377.339-.652.339-.617 0-.755.272-.514.781.171.374.034.646-.24.816-.412.306-.584.714-.652 1.19-.035.237-.412.51-.07.747.344.238.687-.034.962-.204.137-.102.206-.306.343-.442.926-.747 1.75-1.8 3.431-1.427-1.098.612-2.059.986-2.848 1.733.515.34.927.68 1.235 1.19.206.34.721 1.019 1.339.713.583-.306.068-.85-.035-1.223-.137-.442.035-.884.378-.714.789.408 1.51-.238 2.23.034.892.34 1.922-.272 2.745.374.103.068.24-.17.275-.306.069-.204-.103-.51.206-.713.137.135.274.271.411.34.172.101.275.373.55.271v-.17c-.378-1.155-.378-1.155.789-1.087.171 0 .446.034.549-.068.789-.748 1.784-.612 2.745-.714.446-.034 1.166-.17 1.098-.645-.206-1.19.069-1.665 1.304-1.462.171.034.343-.135.514-.237.55-.272 1.167-.204 1.648 0 .377.17.308.136.583-.17.446-.476.892-.748.446-1.427-.034-.034.034-.102.034-.17.206-.782 1.407-1.495 2.608-1.495.858 0 1.133.713 1.338 1.359.103.272 0 .68.343.713 1.064.068.824.85.858 1.461 0 .442-.274.782-.411 1.156-.995.713-1.544 1.835-2.643 2.514a38.553 38.553 0 00-8.2 6.66c-1.27 1.36-2.368 2.923-1.476 4.996.24.611.48 1.257.72 1.869-.24.136-.549.271-.411.645.24.544.309 1.122.926 1.462.584.305 1.03.815.927 1.529-.069.441.068.747.274 1.155.378-.816.72-.68 1.064 0 .206.408.79.646.446 1.291-.137.272.172.34.412.34.309 0 .549 0 .823.17.343.204.755.408.584.85-.138.34-.515.407-.893.305-.549-.17-1.029.068-1.51.408.721.306.721.306.79.748.274 1.257.79 1.529 2.024 1.087.07-.034.275-.034.275-.034.206.917.79.272 1.2.272.481 0 .859.068 1.133.544.24.441.55.849.858 1.29.069-.849 0-1.664-.617-2.31-.31-.306-.24-.51-.035-.781.79 1.257 1.613 2.446 1.887 3.941.24 1.394-.137 2.515-1.063 3.025-.927.271-1.888.441-2.848.136-.618-.17-1.27-.238-1.922-.374-.206-.068-.377-.136-.583-.204-.618-.408-1.27-.782-1.99-1.02-.138-.067-.275-.17-.447-.237-.068-.204-.205-.272-.411-.272-.069-.068-.172-.102-.24-.17-.378-.578-.961-.884-1.579-1.19-.034-.033-.069-.033-.069-.068-.068-.203-.205-.271-.377-.271-.137-.102-.24-.204-.378-.272-.068-.204-.205-.306-.411-.272h-.035c-.102-.238-.274-.374-.514-.374a4.152 4.152 0 01-.48-.34c-.035-.136-.104-.17-.206-.136-.961-1.019-2.23-1.63-3.466-2.242-1.785-.85-3.74-1.393-5.593-.51-2.128.986-3.397 2.922-4.53 4.927-.583.952-1.166 1.937-1.715 2.889-.55.611-.893 1.359-1.167 2.14-.206.374-.412.714-.618 1.088-.034.068-.068.102-.103.17-.309.475-.514.985-.96 1.359-.103 0-.172.068-.172.17-.172.204-.377.407-.55.611-.136 0-.17.068-.205.17-.96.612-1.784 1.393-2.985 1.597-.652.102-1.236 0-1.51-.475-.275-.442.206-.884.618-1.122.617-.407.514-.85 0-1.189-.618-.374-.961-.883-.79-1.563.172-.748.893-.17 1.27-.374 0-.068.034-.17.034-.204-.24-.238-.377-.51-.068-.815.343-.34.377.17.514.204.48.034.79-.34.995-.714.275-.442-.102-.442-.446-.544-.343-.102-.686-.34-.995-.543-1.03-.714-1.063-1.326-.103-2.073.172-.136.275-.272.206-.476-.514-1.393 1.167-2.107 1.098-3.432 0-.204.378-.646.31-1.087-.07-.272-.07-.646.24-.782.48-.204.445-.578.445-.985.035-.408-.103-.918.378-1.19.24-.136.103-.305-.034-.441-.138-.102-.138-.612-.618-.272zm15.304-9.855c0 .034 0 .034.034.068h.034l-.068-.068c-.035-.271.24-.68-.309-.68-.618 0-1.064.646-1.03 1.428.48-.204.721-.85 1.339-.748zm-8.99-6.422c.274.17.617.272.755.646.24.781.617.85 1.166.305.275-.305.55-.543.96-.271.413.238.55-.136.79-.272-.309.611.034 1.087.515 1.257.549.204.549-.442.686-.781.069-.17.103-.374.172-.51.411-.816.034-1.122-.72-1.054-.756.034-1.236-.271-1.75-.747-.31-.306-.756-1.36-1.133 0-.035.068-.24.136-.343.136-1.133-.204-1.167.51-1.098 1.291a.607.607 0 00-.138.17c.035.034.069.034.103.068 0-.068.035-.136.035-.238zm.308 8.325c-.583.102-1.235.17-1.578.714-.343.578-.446 1.257-.96 1.767-.104.102-.035.306.102.408.137.136.343.136.412 0 .309-.68 1.441-.578 1.475-1.53 0-.305.24-.237.48-.237.516-.034.516-.51.55-.85.068-.408-.309-.17-.48-.272zM21.19 44.242c.068-.238 0-.306-.138-.374-.446-.204-1.612.306-1.75.815-.034.102.035.238.103.34.103.17.31.204.412.102.309-.34.72-.34 1.098-.51.137-.102.206-.271.275-.373zM30.042 26.3c.515-.442 1.133-.51 1.545-1.088-.412-.034-.618-.645-1.133-.271-.446.34-.72.68-.412 1.359zm-3.122-.748c-.034-.747-.343-1.155-.927-1.189-.48-.034-.583.476-.686.884-.034.17-.034.407.172.51.24.135.343-.103.446-.239.274-.51.549-.815.995.034zm8.578-3.636c.035.51-.755.85-.274 1.258.309.238.995.204 1.2-.204.378-.748-.857-.408-.926-1.054zM7.945 26.47c.068.306-.07.815.343.781.617-.102.171-.815.48-1.155.103-.136-.137-.34-.343-.34-.515 0-.48.374-.48.714zm37.642 10.94c-.412-.203-.687-.101-.961-.135-.55-.068-.378.475-.618.645-.137.102-.103.34.069.374.309.102.549-.068.755-.238.24-.17.446-.408.755-.646zm-23.265 1.835c.618.374.652-.17.755-.51.137-.339-.137-.339-.343-.373-.48-.034-.927.102-.995.612-.103.475.308.271.583.271zm-2.059 8.258c-.446 0-.549-.306-.79-.51-.308-.306-.72-.204-.994.136-.137.17-.137.476.137.51.515.102 1.03.441 1.647-.136zm10.329-17.942c-.138-.272-.138-.646-.584-.612-.412.034-.274.34-.309.578-.034.34.103.612.446.578.275 0 .412-.272.447-.544zm2.127-6.694c-.309.17-.72.238-.72.747 0 .272.137.374.411.374.515-.034.55-.442.652-.781.069-.238-.137-.34-.343-.34zm6.828 11.757c.344-.272.652-.51.961-.748.172-.135.24-.271 0-.407-.137-.068-.343-.17-.377.034-.103.407-.687.577-.584 1.121zm-16.23 3.432c.515.068.96-.034 1.132-.544.069-.136-.034-.237-.24-.271-.858-.272-.48.68-.892.815zm-3.466-10.33c-.137-.238-.274-.408-.549-.34-.308.068-.652.136-.652.544 0 .238.275.272.447.204.274-.102.617-.068.754-.408zm12.56-7c-.035-.306.136-.68-.241-.85-.069-.033-.24 0-.24.069-.137.373.343.441.48.781zm.48.034c-.035.102-.07.17-.07.272 0 .034.104.102.138.068.069-.034.103-.102.172-.136-.103-.068-.138-.136-.24-.204z" fill="#0A67B5"/><path d="M56.122 14.714c-.068-.612.206-1.393-.858-1.461-.343-.034-.24-.476-.343-.714-.24-.68-.48-1.359-1.338-1.359-1.2 0-2.402.714-2.608 1.495 0 .068-.068.136-.034.17.446.68 0 .952-.446 1.427-.275.306-.24.34-.583.17-.515-.238-1.099-.271-1.648 0-.171.068-.343.272-.514.238-1.236-.17-1.51.306-1.304 1.461.103.476-.652.612-1.098.646-.96.068-1.956-.034-2.745.714-.103.101-.378.068-.55.068-1.132-.068-1.132-.068-.788 1.087v.17c-.275.068-.378-.17-.55-.272-.171-.102-.274-.238-.411-.34-.31.204-.138.476-.206.714-.069.17-.206.374-.275.306-.858-.646-1.887-.034-2.745-.374-.72-.272-1.44.34-2.23-.034-.343-.17-.48.272-.378.713.103.408.618.952.035 1.224-.618.306-1.098-.374-1.339-.714-.308-.51-.72-.85-1.235-1.19.79-.747 1.75-1.12 2.848-1.732-1.716-.374-2.505.68-3.431 1.427-.137.102-.206.34-.343.442-.275.17-.618.476-.961.204-.343-.238.034-.51.069-.748.068-.476.205-.883.652-1.19.274-.17.411-.441.24-.815-.24-.475-.103-.781.514-.781.24 0 .618.17.721-.272.103-.442-.24-.646-.48-.85-.344-.272-.687-.102-.927.136-.274.272-.412.612-.343 1.088.137.68-.172.985-.858.645-.755-.34-1.51-.136-2.265-.068-.377.034-.892.204-.995.646-.137.578-.48.747-.995.815-.206.034-.48.068-.48.374 0 .204.24.272.412.34.343.17 1.063.204.789.68-.24.407-.412 1.121-1.235 1.053-1.339-.136-2.608.204-3.912.442-.275.034-.652.102-.652.442-.034.373.377.237.583.305.618.238 1.235.272 1.922.238.755-.034 1.475.51 2.059.986.24.203.446.645.102.917-.343.272-.754.204-1.029-.17-.446-.611-.72-.577-1.235-.034-.618.646-1.613.612-2.402.986-.206.102-.275-.238-.412-.306-.446-.204-.858-.102-.823.408 0 .441-.275.475-.515.543a.425.425 0 01-.584-.34c-.034-.713-.754-.611-1.098-.95-.583-.545-.823.169-1.2.407a2.636 2.636 0 01-1.476.34c-.48-.034-.892.034-1.338.373-.48.408-.858.306-.858-.475.034-.884-.275-1.054-1.064-.646-.48.238-.892.408-1.407.102-.514-.306-.96.034-1.235.408-.446.577-.824.51-1.544.34-1.27-.34-1.716-1.53-2.642-2.141-.72-.51-1.338-.068-1.956.204-.55.237-.72.713-.48 1.325.343.883.686 1.767.583 2.752-.035.442.309.646.617.884 1.853 1.36 3.98 1.937 6.177 2.345 2.917.543 5.799 1.155 8.407 2.684 1.407.85 2.505 1.937 2.78 3.602-.07-.034-.138-.034-.172-.068-1.304-2.209-3.672-2.583-5.8-3.432-1.44-.578-2.985-.68-4.426-1.325-1.304-.578-2.745-.85-4.083-1.428-1.75-.747-3.157-1.869-4.324-3.262-1.51-1.767-.686-4.383 1.579-5.063 2.47-.747 5.01-.645 7.549-.442 2.436.204 4.907.272 7.309-.203 2.436-.442 3.74-2.04 3.774-4.486.034-2.514-.515-4.927-1.167-7.34-.652-2.446-.583-4.859.515-7.17.172-.34.309-.781.824-.85-.138.68-.721 1.224-.893 1.904-.274 1.121-.137 2.243-.343 3.364-.24 1.36.138 2.65.961 3.942.069-.272.103-.374.103-.51.034-.68.652-.442 1.03-.612.205-.068.514.034.583.204.137.442-.343.51-.584.714-.48.408-.411.985.172 1.325.412.238.652.51.24.917-.377.374-.514.884-.377 1.258.171.543.652-.034.995.068.137.034.24.034.377.068.687.204 1.27 1.223.824 1.427-.583.306-.824 1.155-1.716 1.02-.343-.035-.515.34-.309.713.103.17 1.647.204 1.716 0 .275-.951 1.132-1.257 1.853-1.767.172-.102.343-.238.274-.442-.274-1.155.755-1.563 1.407-1.63 1.03-.103 1.133-1.02 1.785-1.462.274-.17.377-.918-.412-.986-.412-.034-.72-.237-.515-.68.275-.577.206-1.12-.206-1.562-.514-.544-.892.17-1.372.204a.453.453 0 01-.103-.136c-.172-.578.069-.884.617-1.02.31-.102.515-.34.344-.645-.172-.374-.206-.952-.824-.918-.274 0-.72-.374-.823.102-.138.68-.824.816-1.133 1.36-.309.577-.926-.035-1.407.17-.103.033-.206-.205-.137-.273.446-.271-.069-1.155.515-1.12.926.067 1.407-.443 2.024-.884.48-.34.412-.578.206-1.02-.412-.815-1.166-1.427-1.544-2.243-.755-1.63-2.47-1.97-3.569-1.019.275-.917.79-1.223 1.682-1.02 1.372.34 2.402 1.19 3.157 2.277 1.475 2.175 2.608 4.52 3.637 6.932.926 2.21 1.784 4.52 3.637 6.219.79.713 1.75.917 2.745 1.155 1.304.306 2.47-.17 3.637-.442 1.133-.271 2.23-.815 3.226-1.46 2.368-1.53 4.735-2.991 7.446-3.807 1.373-.407 2.814-.781 4.186.17.961.646 1.647 2.175 1.407 3.296.069.272 0 .374-.206.408zM7.157 22.802c-.206-.068-.515-.272-.515.17 0 .373.309.645.686.611.412-.034.995-.238.927-.611-.103-.884-.72 0-1.098-.17zm22.407-9.413c.549.136 1.029.713 1.612.204.172-.136.069-.442-.137-.578-.618-.476-1.03.034-1.476.374zm-5.422 1.427c-.034-.306-.274-.306-.48-.306-.31 0-.584.068-.618.442-.034.374.274.34.549.34.309 0 .515-.136.549-.476zm8.578 1.665c0-.272-.171-.408-.411-.408-.31 0-.55.204-.584.476-.034.272.275.306.48.34.344.102.378-.204.515-.408zM20.127 37.039c.446-.374.48.17.686.34.172.135.31.305.035.441-.515.272-.343.782-.378 1.19-.034.407.035.781-.446.985-.309.136-.274.51-.24.782.103.441-.309.883-.309 1.087.069 1.325-1.613 2.039-1.098 3.432.069.204-.034.34-.206.476-.96.747-.96 1.325.103 2.072.309.204.618.442.995.544.309.102.687.102.446.544-.206.34-.514.747-.995.713-.137 0-.171-.543-.514-.203-.31.305-.172.543.068.815.034.034 0 .102-.034.204-.412.204-1.098-.374-1.27.374-.171.68.206 1.155.79 1.563.514.34.617.781 0 1.19-.412.271-.859.713-.618 1.12.274.442.858.578 1.51.476 1.2-.204 2.024-.985 2.985-1.597-.584 2.005-1.51 2.719-3.157 2.413-1.613-.306-3.191-2.277-3.294-3.942-.172-2.548.926-4.757 1.784-7.068.961-2.616 2.505-4.995 3.02-7.747.034-.136.103-.17.137-.204zm32.288 3.838c-.24.272-.274.476.035.782.583.645.651 1.46.617 2.31-.274-.441-.583-.85-.858-1.29-.274-.443-.617-.545-1.132-.545-.412 0-.995.612-1.201-.271 0 0-.172 0-.275.034-1.27.441-1.75.203-2.024-1.088-.103-.442-.103-.442-.79-.747.481-.34.927-.578 1.51-.408.378.102.755.034.893-.306.171-.442-.24-.646-.584-.85-.274-.17-.549-.17-.823-.17-.24 0-.55-.067-.412-.34.343-.645-.24-.883-.446-1.29-.343-.68-.686-.816-1.064 0-.206-.374-.343-.68-.274-1.156.103-.68-.343-1.223-.927-1.529-.617-.34-.686-.951-.926-1.461-.172-.374.171-.476.412-.646 1.2 1.36 2.367 2.787 3.602 4.078.824.85 1.82 1.563 2.677 2.413.72.781 1.544 1.495 1.99 2.48zm-2.264-.781c0-.034 0-.034-.035-.068h-.034c.034 0 .069.034.069.068 0 .373-.961.204-.515.815.274.34.755.476 1.098.238.446-.306-.069-.578-.206-.85-.034-.17-.206-.237-.377-.203zm-6.757-10.059c-.927-2.073.206-3.636 1.475-4.995 2.402-2.617 5.181-4.825 8.201-6.66 1.098-.68 1.647-1.801 2.642-2.515-.583 1.801-1.44 3.296-3.225 4.384-3.088 1.903-5.868 4.247-7.755 7.441l-1.338 2.345zm-16.23 14.885c1.098-2.005 2.368-3.908 4.53-4.927 1.887-.884 3.808-.34 5.593.51 1.235.577 2.505 1.223 3.465 2.242-.755.068-1.338-.442-1.887-.714-1.304-.645-2.574-.238-3.809-.102-.858.102-1.715.34-2.608.442-1.132.136-2.196.612-3.157 1.258-.549.373-1.372.475-1.578 1.325-.034.272-.343.034-.549-.034zm21.274 2.754c.651.102 1.303.17 1.921.374.995.271 1.922.136 2.848-.136 0 .713-.309 1.087-1.064 1.121-1.407 0-2.676-.306-3.706-1.36zm-24.192 2.277a7.23 7.23 0 011.167-2.14c.034.951-.55 2.004-1.167 2.14zm21.652-3.5c.721.272 1.339.646 1.99 1.02-.034.102-.102.203-.137.305-.652-.441-1.612-.373-1.853-1.325zm-2.675-1.906c.617.272 1.2.611 1.578 1.19-.79 0-1.338-.409-1.578-1.19zm-1.783-1.289c.274 0 .411.17.514.374-.274.034-.583.068-.515-.374zm3.6 2.648c.205 0 .342.068.41.272-.274.136-.41.068-.41-.272zm-2.302-1.696c.206 0 .343.069.378.273-.275.136-.378.034-.378-.272zm-.752-.58c.206-.034.343.102.411.272-.308.17-.446.068-.411-.272zm-18.427 7.579c.034-.068.068-.102.102-.17.035.068.07.17.138.238-.103-.034-.172-.068-.24-.068zm.207.033l.068.068-.068-.068zm-1.371 1.498c0-.102.068-.17.171-.17 0 .102-.034.17-.171.17zm-.727.778c0-.102.069-.17.206-.17-.034.102-.103.17-.206.17zM40.75 42.781c.103 0 .206.034.206.136-.103.034-.172-.034-.206-.136z" fill="#7DB2EA"/><path d="M30.08 21.137c-.24.136-.378.543-.79.272-.411-.238-.652-.034-.96.271-.515.578-.893.476-1.167-.305-.137-.408-.446-.476-.755-.646-.069-.782-.034-1.495 1.098-1.325.103.034.309-.068.343-.136.343-1.36.79-.306 1.133 0 .514.476.995.781 1.75.747.72-.034 1.132.272.72 1.054-.069.17-.103.374-.172.51-.171.34-.137.985-.686.781-.48-.136-.823-.612-.515-1.223zm-3.331 7.949c.172.102.549-.136.48.272-.034.34-.034.815-.549.85-.24 0-.446-.069-.48.237-.034.952-1.167.85-1.476 1.53-.068.135-.274.135-.411 0-.138-.137-.206-.34-.103-.409.514-.51.617-1.189.96-1.767.344-.543.996-.611 1.579-.713zm-5.554 15.159c-.069.068-.172.272-.309.34-.343.17-.789.203-1.098.51-.103.101-.309.067-.412-.103a.652.652 0 01-.103-.34c.103-.475 1.304-1.019 1.75-.815.172.102.24.17.172.408zm8.85-17.945c-.274-.68-.034-1.053.446-1.36.515-.373.721.239 1.133.273-.446.577-1.064.68-1.579 1.087zm-3.126-.747c-.446-.85-.686-.544-.995-.068-.069.136-.206.374-.446.238-.206-.102-.206-.306-.172-.51.103-.408.206-.917.686-.883.584.068.892.476.927 1.223zm8.581-3.635c.035.646 1.304.34.927 1.087-.206.374-.892.442-1.201.204-.48-.442.309-.815.274-1.291zM7.95 26.47c-.034-.34-.034-.713.48-.747.206 0 .447.204.344.34-.31.373.137 1.087-.48 1.155-.412.068-.275-.442-.344-.748zm37.64 10.941c-.275.272-.48.476-.72.646-.207.17-.481.34-.756.238-.171-.068-.206-.306-.068-.374.24-.17.068-.747.617-.645.206 0 .515-.102.927.135zm-23.265 1.837c-.24 0-.652.204-.583-.272.069-.51.515-.646.995-.612.24 0 .48.034.343.374-.137.306-.137.884-.755.51zm13.104-12.063c-.652-.102-.892.51-1.373.747-.034-.781.447-1.46 1.03-1.427.583.034.309.442.343.68zM20.264 47.504c-.583.578-1.132.204-1.647.136-.309-.034-.274-.34-.137-.51.274-.34.686-.441.995-.135.206.204.343.51.79.51zm10.328-17.941c-.034.272-.206.544-.446.544-.31 0-.48-.272-.446-.578.034-.238-.103-.544.309-.578.445-.034.48.34.583.612zm2.128-6.696c.206 0 .412.102.344.34-.103.34-.138.781-.652.781-.275 0-.412-.101-.412-.373 0-.51.412-.578.72-.748zm6.831 11.76c-.103-.51.48-.68.55-1.155.034-.204.24-.102.377-.034.24.136.171.272 0 .408-.31.272-.618.51-.927.781zM23.32 38.06c.412-.137.035-1.088.892-.816.206.068.31.136.24.272-.205.51-.617.611-1.132.543zm-3.467-10.334c-.137.34-.48.34-.755.408-.171.068-.446.034-.446-.204 0-.408.343-.476.652-.544.275-.068.412.102.55.34zm12.558-6.996c-.137-.306-.618-.408-.48-.782 0-.034.171-.102.24-.068.377.17.206.544.24.85zm.481.032c.103.068.137.136.206.204-.034.068-.103.101-.172.136a.507.507 0 01-.137-.068c.034-.102.069-.17.103-.272z" fill="#7DB2EA"/><path d="M26.442 20.762c0 .068-.034.17-.034.238-.035-.034-.069-.034-.103-.068.034-.034.103-.102.137-.17zm8.988 6.456c.034.034.068.034.103.068h-.035c-.034-.034-.034-.068-.068-.068z" fill="#7DB2EA"/><path d="M21.672 1.09c1.064-.952 2.814-.646 3.569 1.019.377.815 1.132 1.427 1.544 2.242.206.408.24.68-.206 1.02-.618.442-1.098.951-2.025.883-.583-.034-.068.816-.514 1.122-.103.068.034.306.137.272.48-.204 1.098.407 1.407-.17.274-.544.995-.68 1.132-1.36.103-.441.55-.068.824-.102.617-.033.617.544.823.918.137.306-.034.544-.343.646-.549.17-.79.441-.618 1.019-.686 0-1.098.408-1.647.748-.686.441-.583.611-.24 1.087.275.374.24.748.034 1.155-.137.306-.48.544-.411 1.088.617-.748 1.475-.748 2.264-.884.515-.102.755-.475.55-1.087-.207-.646-.859-1.223-.447-2.005.48-.034.858-.748 1.373-.204.412.442.48.986.206 1.563-.206.442.103.646.514.68.824.068.687.815.412.985-.652.408-.755 1.36-1.784 1.461-.652.068-1.681.442-1.407 1.632.034.203-.137.34-.274.441-.721.476-1.545.816-1.854 1.767-.068.17-1.612.17-1.715 0-.206-.34-.034-.747.309-.713.892.136 1.098-.714 1.715-1.02.412-.204-.171-1.223-.823-1.427-.103-.034-.24-.034-.378-.068-.343-.102-.823.476-.995-.068-.137-.408 0-.883.378-1.257.412-.374.137-.68-.24-.918-.584-.34-.652-.917-.172-1.325.24-.204.72-.272.583-.714-.068-.203-.377-.305-.583-.203-.343.17-.96-.102-1.03.611 0 .102-.034.238-.102.51-.824-1.291-1.201-2.549-.961-3.942.206-1.121.069-2.242.343-3.364.069-.747.652-1.291.652-2.039zm2.676 3.465c.275.408.48.748.995.612.206-.068.378-.272.275-.442-.309-.408-.755-.272-1.27-.17zm-.102.782c-.447-.442-.79-.612-1.201-.374-.07.034-.138.272-.138.306.378.306.755.102 1.338.068zm0-1.19c.24 0 .549-.033.617-.305.069-.272-.171-.272-.377-.272-.275 0-.55.068-.618.306-.069.238.172.238.378.272zm-2.402 4.554c.171-.306.308-.612.514-.985-.892.034-.652.543-.515.985zM7.16 22.8c.377.204.96-.68 1.097.17.069.374-.549.544-.926.612a.611.611 0 01-.686-.612c0-.442.308-.238.514-.17zm22.403-9.412c.48-.34.892-.85 1.475-.408.172.136.274.442.137.578-.583.544-1.098 0-1.613-.17z" fill="#0A67B5"/><path d="M24.144 14.816c-.034.34-.274.51-.583.51-.24 0-.55.034-.55-.34.035-.374.31-.442.618-.442.275-.034.48-.068.515.272zm8.578 1.664c-.103.204-.172.51-.515.442-.206-.034-.48-.068-.48-.34.034-.305.274-.51.583-.475.24-.034.412.102.412.373zM50.15 40.098c.171 0 .308.068.377.203.137.272.652.544.206.85-.343.238-.824.136-1.098-.238-.446-.611.549-.442.515-.815zm.005-.034c-.035-.034-.035-.068-.07-.068h.035a.105.105 0 01.035.068zM30.082 21.136l.035-.034-.035.034z" fill="#0A67B5"/><path d="M27.435 8.7c-.412.781.24 1.359.446 2.005.206.611-.034.985-.549 1.087-.823.136-1.647.136-2.264.883-.07-.543.274-.781.411-1.087.206-.408.24-.782-.034-1.155-.377-.476-.446-.646.24-1.088.55-.374.995-.747 1.647-.747.035 0 .069.034.103.102zm-3.087-4.144c.514-.102.96-.238 1.235.204.103.136-.069.374-.275.442-.48.135-.686-.238-.96-.646zm-.102.781c-.583.034-.96.238-1.303-.068-.035-.034.034-.238.137-.306.377-.238.72-.068 1.166.374zm.002-1.224c-.172-.034-.447-.034-.378-.272.069-.238.378-.306.618-.306.171 0 .446 0 .377.272-.103.272-.377.306-.617.306zM21.843 8.7c-.137-.475-.378-.985.515-.985-.206.408-.343.713-.515.985z" fill="#7DB2EA"/></g><defs><clipPath id="clip0_2386_8244"><path fill="#fff" transform="translate(.5)" d="M0 0h56v56H0z"/></clipPath></defs></svg>