<svg width="57" height="56" fill="none" xmlns="http://www.w3.org/2000/svg"><g clip-path="url(#clip0_2386_8299)"><path d="M50.29 41.524c1.328 0 2.508-.554 3.761-.887.848-.258 1.991-.517 2.286.296.369.96.147 2.106-1.032 2.845-1.254.812-2.507 1.256-3.982.812-.516-.147-1.069-.11-2.138-.184 1.77 2.032 1.77 3.88.368 5.726-1.585 2.106-3.686 2.92-6.267 2.771-1.4-.073-2.839.074-4.24-.073-1.99-.222-3.65.923-5.493 1.182-6.046.813-12.13.221-18.212.258-1.66 0-3.318.037-4.977-.037-.922-.036-1.917 0-2.728-.332-3.908-1.589-4.793-2.476-3.171-6.207-1.88.222-3.06-.665-3.687-2.328-.184-.517-.59-.997.148-1.404.553-.295.737-1.404 1.77-.776.405.26.921.26 1.363.48 1.88.85 3.171.186 4.13-1.477.884-1.22 1.622-2.586 2.728-3.584 2.838-2.55 3.318-5.911 3.797-9.347.037-.259.037-.518.074-.74.553-1.07.295-2.18.258-3.288.306-2.149.62-5.009 2.323-5.874 3.514-.587 8.097-2.305 6.746-6.687-.59-1.81-1.548-3.547-1.548-5.505.147-.813.147-1.737.479-2.476.627-1.478 1.475-2.808 3.244-3.066 2.47-.37 4.056.813 5.051 2.955.037 1.035.148 2.033.148 3.104-.148 1.541-.788 2.807-1.176 3.584-2.162 4.324.86 6.996 5.157 7.98 1.512.37 2.323 1.33 2.728 2.697.553 1.995.885 3.99.7 6.133-.257 2.882.222 5.8 2.102 8.129 1.512 1.847 3.466 3.25 5.493 4.47.627.628 1.29 1.145 2.25 1.035.626.147 1.105.258 1.548-.185zm-7.373.85c-.884-.555-1.696-1.146-2.543-1.552-2.729-1.22-3.982-3.362-4.425-6.244-.331-1.995-.442-4.027-.921-6.022-.737 2.918-1.438 5.837-1.917 8.793-.369 2.254.332 4.286 1.806 6.096.7.887 1.364.96 2.36.591 1.77-.59 3.613-1.034 5.64-1.662zm-24-13.375c-.443 2.069-.848 3.658-1.106 5.246-.442 2.808-1.364 5.284-3.576 7.242-1.401 1.256-2.95 2.29-4.793 3.62 1.29-.073 2.212-.258 3.097-.11 4.645.665 6.636-3.067 7.447-6.429.811-3.14.221-6.133-1.07-9.569z" fill="#003"/></g><defs><clipPath id="clip0_2386_8299"><path fill="#fff" transform="translate(.5)" d="M0 0h56v56H0z"/></clipPath></defs></svg>