<svg width="92" height="33" fill="none" xmlns="http://www.w3.org/2000/svg"><g clip-path="url(#clip0_4109_601)" fill="#fff"><path d="M56.872 22.996c-.514-.053-1.01-.07-1.505-.106a20.995 20.995 0 01-1.487-.106c-.496.053-1.01.07-1.488.106-.496.017-.991.053-1.505.106h-.07c-.514 0-1.063-.018-1.063-.513 0-.478.283-.638.761-.832.55-.248.602-.62.602-2.036v-8.109c0-.265-.017-.495-.053-.584-.088.07-.248.39-.407.708l-.106.213-4.976 10.374c-.248.514-.53.779-.832.779-.354 0-.513-.319-.637-.566l-.018-.036-4.887-10.746c-.248-.584-.354-.637-.407-.637-.035 0-.088 0-.088.478v6.692c0 1.398.247 2.797 2.036 3.47.39.141.743.354.743.832 0 .513-.548.513-.779.513-.442 0-.885-.053-1.328-.106a10.606 10.606 0 00-1.31-.106c-.425 0-.867.053-1.292.106-.425.053-.886.106-1.328.106-.23 0-.638 0-.638-.513 0-.443.301-.602.655-.78l.089-.052c1.204-.655 1.576-1.293 1.576-2.745v-9.56c0-.991-.301-2.283-1.169-2.708l-.39-.195c-.566-.266-.85-.39-.85-.797 0-.372.125-.513.443-.513.372 0 .762.018 1.133.053.372.018.744.053 1.116.053.372 0 .744-.018 1.116-.053.371-.018.76-.053 1.133-.053.495 0 .743.07.956.496l4.904 10.303c.142.283.248.514.337.726.16.336.265.584.336.673.07-.071.213-.337.319-.549.053-.106.124-.23.195-.354l5.47-10.622c.266-.532.39-.638.674-.638.371 0 .76.018 1.133.053.372.018.743.053 1.115.053s.744-.017 1.116-.053c.372-.017.761-.053 1.133-.053.088 0 .16.036.212.089.089.088.107.23.089.442 0 .443-.425.602-1.133.85l-.142.053c-.832.283-1.222.478-1.222 1.948v8.976c0 2.07.089 3.381 2.001 4.125.514.194.815.336.815.832.017.513-.567.513-1.098.513zm9.808.159c-1.133 0-2.195-.265-3.205-.513-.442-.107-.92-.23-1.38-.32-.036 0-.054-.017-.09-.017-.265-.053-.69-.124-.814-.549l-.885-3.487a4.852 4.852 0 01-.053-.23c-.053-.195-.124-.425-.124-.62 0-.142.053-.567.726-.567.531 0 .744.532.885.921.036.089.071.177.106.248.815 1.753 2.55 3.611 4.923 3.611 1.77 0 2.992-1.115 2.992-2.708 0-1.629-1.682-2.23-3.647-2.921C63.582 15.1 60.43 13.984 60.43 10c0-2.815 2.373-5.099 5.276-5.099 1.346 0 2.39.39 3.134.673.46.177.832.301 1.116.301.106 0 .318-.088.495-.177.213-.088.408-.177.55-.177.53 0 .601.354.601.673-.035 1.009.16 2.443.266 3.31.053.39.07.585.07.673 0 .46-.265.744-.707.744-.567 0-.726-.46-.903-1.063l-.036-.106c-.567-1.77-2.638-3.346-4.444-3.346-1.328 0-2.674.726-2.674 2.107 0 1.735 1.718 2.301 3.683 2.974 2.638.903 5.63 1.912 5.63 5.913a5.723 5.723 0 01-5.807 5.754zm17.176.002c-4.267 0-8.694-3.204-8.694-8.551 0-3.222.992-5.807 2.886-7.507 1.576-1.416 3.754-2.177 6.126-2.177 1.842 0 3.382.602 4.41.991.442.177.831.319 1.026.319.177 0 .23-.07.337-.266.123-.212.283-.513.743-.513.266 0 .46.16.514.443l.372 3.416c.017.195.053.408.088.62.035.266.089.531.089.708 0 .39-.195.797-.567.797-.372 0-.637-.496-.797-.797-.017-.035-.035-.053-.053-.088-1.487-2.656-3.47-4.125-5.595-4.125-3.506 0-5.206 2.301-5.206 7.046 0 4.019 2.48 7.276 5.525 7.276 1.806 0 3.683-.85 5.134-2.337.054-.053.107-.106.16-.177.283-.3.62-.69 1.027-.69.141 0 .46.053.46.548.018.868-2.656 5.064-7.985 5.064zm-71.249.053a.29.29 0 00.39-.107.29.29 0 00-.107-.389.29.29 0 00-.39.106.27.27 0 00.107.39zm12.075-4.515l8.251-2.195-8.25-2.213 3.363-4.497-5.56.69.673-5.576-4.48 3.364L16.468 0 14.27 8.268 9.79 4.904l.673 5.577-5.577-.673 3.364 4.497L0 16.5l8.251 2.213-3.364 4.497 5.577-.673-.673 5.577 4.48-3.364L16.466 33l2.196-8.268 4.497 3.382-.672-5.595 5.577.673-3.382-4.497zm5.152-2.195h-4.869a8.23 8.23 0 00-.106-1.328l4.975 1.328zm-26.718 0h4.87c0 .443.035.903.106 1.328L3.116 16.5zm19.105-9.967l-1.505 2.584a8.061 8.061 0 00-1.186-.566l2.69-2.018zM20.61 10.25a.437.437 0 01-.602.159.453.453 0 01-.16-.62.453.453 0 01.62-.16.47.47 0 01.142.62zm-4.143-7.135v4.868c-.744 0-1.328.107-1.328.107l1.328-4.975zM12.518 9.63a.458.458 0 01.62.16.458.458 0 01-.16.619.458.458 0 01-.62-.16.457.457 0 01.16-.62zm-.3-.514c-.408.23-.727.46-1.081.744l-.407-3.328 1.487 2.584zm-2.78 7.348a.438.438 0 01-.443.442.438.438 0 01-.443-.442c0-.248.195-.443.443-.443.247 0 .442.195.442.443zm-2.905-5.736l2.586 1.504a8.13 8.13 0 00-.567 1.186l-2.019-2.69zm0 11.525l2.586-1.505c.23.407.46.726.743 1.098l-3.329.407zm4.197 4.213l1.505-2.602c.407.23.761.407 1.186.566l-2.691 2.036zm1.629-3.717a.453.453 0 01.62-.16.458.458 0 01.159.62.437.437 0 01-.602.16c-.23-.143-.301-.408-.177-.62zm4.107 7.134v-4.868c.443 0 .886-.036 1.328-.107l-1.328 4.975zm3.984-6.515a.458.458 0 01-.62-.16.458.458 0 01.16-.619.458.458 0 01.62.16.462.462 0 01-.16.62zm.284.496a7.76 7.76 0 001.08-.744l.407 3.346-1.487-2.602zm-4.268-.885c-3.576 0-6.462-2.904-6.462-6.48 0-3.576 2.886-6.48 6.463-6.48 3.576 0 6.462 2.904 6.462 6.48 0 3.576-2.886 6.48-6.462 6.48zm9.951-12.252l-2.585 1.505a9.195 9.195 0 00-.744-1.097l3.33-.407zm-2.921 5.754c0-.248.195-.442.442-.442.248 0 .443.194.443.442a.438.438 0 01-.443.443c-.23.018-.442-.195-.442-.443zm.903 3.08l2.018 2.692-2.585-1.505c.23-.39.407-.761.567-1.186zm-11.51-9.294c.143-.07.178-.248.107-.39-.07-.14-.248-.176-.39-.105-.141.07-.176.247-.106.389.071.142.248.177.39.106zm-4.178 6.197a.28.28 0 00.284.283.28.28 0 00.283-.283.28.28 0 00-.283-.284.28.28 0 00-.284.284zm11.367 6.267c-.141.07-.177.248-.106.39.071.14.248.176.39.105.142-.07.177-.247.106-.389-.088-.142-.248-.195-.39-.106zm4.161-6.25a.28.28 0 00-.283-.283.28.28 0 00-.283.283c0 .16.124.284.283.284a.291.291 0 00.283-.284zm-3.877-6.71a.29.29 0 00-.39.107.29.29 0 00.106.39.29.29 0 00.39-.107.307.307 0 00-.106-.39z"/><path d="M13.987 20.093c0 .124.089.23.195.284a.88.88 0 00.602 0 .303.303 0 00.195-.284.316.316 0 00-.177-.283 1.559 1.559 0 00-.266-.088 2.75 2.75 0 00-.372-.071c-.07-.018-.124-.018-.194-.036a1.77 1.77 0 01-.957-.442.744.744 0 01-.159-.248c-.248-.549 0-1.204.549-1.452a2.685 2.685 0 012.125-.017c.407.141.673.53.69.956H15.05a.395.395 0 00-.354-.32.648.648 0 00-.443.054.329.329 0 00-.177.407c.088.142.23.248.407.284.319.053.655.123.974.23a.879.879 0 01.372.159c.106.088.194.177.265.3a1.073 1.073 0 01-.372 1.488 2.66 2.66 0 01-2.018.16 1.047 1.047 0 01-.868-1.045l1.151-.036zm6.127-1.239a1.575 1.575 0 00-.726-1.274 1.679 1.679 0 00-2.09.106 1.68 1.68 0 00-.584 1.221c-.07.46 0 .939.16 1.381.194.407.53.726.973.868.425.159.886.124 1.275-.071a1.75 1.75 0 00.992-1.416h-1.08c-.071.23-.195.407-.337.495-.336.23-.744 0-.903-.495-.16-.514 0-1.098.337-1.328.336-.23.743 0 .902.495h1.08v.018zM18.555 16.2v-2.48a.615.615 0 00-.672-.549c-.301.036-.55.284-.55.585v2.797c.39-.177.798-.301 1.223-.354zm-2.939.318v-2.78a.606.606 0 00-.637-.601.608.608 0 00-.602.513v2.567c.425.036.85.142 1.24.301zm6.073.39a1.805 1.805 0 01-1.593.088 3.197 3.197 0 00-2.426 0c-.372.16-.779.23-1.186.23-.407 0-.815-.07-1.186-.23a3.197 3.197 0 00-2.426 0 1.75 1.75 0 01-1.594-.088l.284-.478a1.2 1.2 0 001.097.053v-4.639h1.736v.443l.177-.177c.761-.637 1.894-.513 2.532.248.336-.39.796-.637 1.31-.655a1.823 1.823 0 011.912 1.735v3.027a1.2 1.2 0 001.098-.053l.265.496zm17.6 12.266c.018.124.053.266.053.337 0 .07-.035.159-.106.159-.07 0-.16-.16-.177-.213-.425-.725-.974-1.115-1.558-1.115-.85 0-1.452.478-1.452 1.912 0 1.027.655 1.983 1.54 1.983.55 0 1.08-.283 1.417-.637.07-.071.177-.213.283-.213.053 0 .07.036.07.089 0 .194-.707 1.274-2.106 1.274-1.116 0-2.284-.796-2.284-2.213 0-1.84 1.24-2.514 2.372-2.514.726 0 1.293.355 1.47.355.16 0 .106-.213.283-.213.053 0 .071.036.089.07l.106.94zm5.772-.227c0-.39-.23-.513-.495-.549-.09-.017-.142-.053-.142-.159 0-.07.017-.106.177-.106.16 0 .336.053.814.053.355 0 .85-.053 1.133-.053.886 0 1.806.16 1.806 1.257 0 .442-.23.672-.495.832-.142.07-.319.106-.319.177 0 .106.744 1.416 1.062 1.788.071.07.124.106.178.106.07 0 .141-.017.212-.017.07 0 .106.053.106.123 0 .284-.779.32-.991.32-.195 0-.425-.142-.567-.39l-.779-1.417c-.106-.212-.213-.371-.46-.371-.177 0-.213.035-.213.123v1.116c0 .549.23.655.496.673.088 0 .142.053.142.159 0 .088-.089.106-.39.106-.265 0-.531-.053-.797-.053-.265 0-.53.053-.797.053-.088 0-.194 0-.194-.106s.106-.142.177-.16c.265-.07.336-.336.336-.548v-2.957zm1.01 1.08c0 .07 0 .23.424.23.602 0 .85-.283.85-.938 0-.478-.283-.938-.85-.938-.354 0-.407.106-.407.336-.017 0-.017 1.31-.017 1.31zm8.446-1.08c0-.407-.23-.549-.496-.549-.089 0-.142-.053-.142-.141 0-.089.053-.124.39-.124.265 0 .53.053.796.053s.532-.053.797-.053c.16 0 .195.035.195.106 0 .07-.089.106-.195.16a.592.592 0 00-.319.548v2.054c0 .779.514 1.328 1.328 1.328 1.187 0 1.47-.939 1.47-1.682v-1.682c0-.337-.177-.549-.531-.567-.106 0-.213-.053-.213-.159 0-.07.089-.106.248-.106.195 0 .39.035.602.035.195 0 .39-.035.602-.035.142 0 .16.035.16.106 0 .106-.124.106-.23.16-.195.07-.248.194-.248.778v1.417c0 1.47-.762 2.213-2.267 2.213-1.204 0-1.912-.514-1.912-1.77v-2.09h-.035zm11.367 2.974c0 .408.371.532.513.55.089 0 .142.052.142.159 0 .106-.195.106-.39.106-.212 0-.478-.053-.726-.053-.265 0-.53.053-.796.053-.124 0-.23 0-.23-.106 0-.107.106-.142.176-.16.266-.07.302-.336.302-.549v-2.974c0-.407-.23-.53-.496-.549-.089 0-.142-.053-.142-.159 0-.106.195-.106.39-.106.265 0 .53.053.796.053s.531-.053.797-.053c.089 0 .195 0 .195.106s-.177.142-.248.16c-.266.07-.266.336-.266.548l-.017 2.974zm5.808-.391a.934.934 0 01-.053-.212c0-.053.035-.106.141-.106.142 0 .16.177.213.283.248.513.726.991 1.345.991.46 0 .85-.283.85-.76 0-1.08-2.46-.55-2.46-2.355 0-.673.548-1.293 1.345-1.293.566 0 .903.266 1.115.266.071 0 .213-.089.284-.089.088 0 .106.036.106.124-.018.372.088.974.088 1.045 0 .088-.035.141-.124.141-.124 0-.141-.106-.194-.265-.16-.478-.709-.92-1.222-.92-.407 0-.761.23-.761.601 0 1.115 2.46.531 2.46 2.355 0 .637-.495 1.47-1.487 1.47-.424 0-.796-.143-1.204-.213-.07-.018-.177-.018-.194-.107l-.248-.956zm8.834-2.246c0-.32-.035-.815-.319-.85-.212-.036-.336-.089-.336-.195 0-.106.106-.106.248-.106.513.07 1.027.053 1.523.053.513 0 1.027-.053 1.522-.053.16 0 .284 0 .284.141 0 .142-.036.284-.036.443 0 .142.036.283.036.443 0 .07-.018.124-.124.124s-.124-.124-.142-.177c-.053-.425-.23-.585-1.01-.585h-.424c-.177 0-.23.053-.23.319v1.15c0 .107.106.142.372.142.39 0 .672-.106.779-.39.07-.176.106-.212.159-.212.106 0 .106.089.106.178 0 .194-.035.389-.035.601 0 .195.035.39.035.602 0 .089 0 .177-.124.177-.106 0-.106-.194-.177-.336-.16-.266-.354-.319-.743-.319-.32 0-.372.089-.372.248v1.133c0 .496.088.567.442.567.69 0 1.08-.213 1.31-.425.23-.213.284-.443.39-.443.089 0 .106.053.106.124 0 .124-.053.39-.106.514-.088.265-.39.584-.69.584-.443 0-.886-.053-1.328-.053-.443 0-.886.053-1.328.053-.213 0-.301 0-.301-.106 0-.107.141-.16.248-.213.212-.106.265-.265.265-.637v-2.496zm8.358 2.246a.934.934 0 01-.053-.212c0-.053.035-.106.142-.106.141 0 .16.177.212.283.248.513.726.991 1.346.991.46 0 .832-.283.832-.76 0-1.08-2.461-.55-2.461-2.355 0-.673.549-1.293 1.346-1.293.566 0 .902.266 1.115.266.07 0 .213-.089.283-.089.089 0 .106.036.106.124-.017.372.09.974.09 1.045 0 .088-.036.141-.125.141-.124 0-.141-.106-.195-.265-.159-.478-.708-.92-1.221-.92-.408 0-.762.23-.762.601 0 1.115 2.461.531 2.461 2.355 0 .637-.495 1.47-1.487 1.47-.425 0-.797-.143-1.204-.213-.07-.018-.177-.018-.195-.107l-.23-.956z"/></g><defs><clipPath id="clip0_4109_601"><path fill="#fff" d="M0 0h92v33H0z"/></clipPath></defs></svg>