<svg width="96" height="35" fill="none" xmlns="http://www.w3.org/2000/svg"><g clip-path="url(#clip0_4109_616)"><path d="M3.277 34.907l-1.59-2.779 1.35-2.167H2.023l-.867 1.46-.29.566V29.96H0v4.946h.867v-1.554l.338-.471 1.06 2.025h1.012zm1.831-4.946v4.946h.916V33.26h.53c.53 0 .916-.142 1.205-.424.29-.283.434-.707.434-1.225 0-.518-.145-.942-.434-1.225-.29-.283-.675-.424-1.205-.424H5.108zm.868 2.497v-1.649h.53c.482 0 .723.283.723.8 0 .566-.241.802-.723.802h-.53v.047zm5.301-.283l-.723-2.214H9.59l1.253 3.533c-.096.283-.192.471-.289.565-.096.095-.24.142-.434.142h-.24v.8h.24c.434 0 .772-.094.964-.235.241-.141.386-.471.579-.942l1.204-3.816h-.963l-.627 2.167zm4.29 2.732l1.011-2.26c.049-.095.193-.425.434-1.084a21.187 21.187 0 00-.096 1.79v1.554h.915v-4.946h-.915l-1.109 2.403a8 8 0 00-.385.895c.096-.613.096-1.178.096-1.696V29.96h-.867v4.946h.915zm7.276-3.58c0-.424-.144-.8-.433-1.036-.29-.283-.627-.377-1.109-.377s-.867.141-1.108.424c-.29.283-.434.66-.434 1.13h.867c.049-.47.241-.753.675-.753.193 0 .338.047.434.188.096.095.145.283.145.471 0 .471-.241.707-.723.707h-.29v.754h.386c.241 0 .434.047.578.188.145.141.193.283.193.518 0 .236-.048.377-.193.518-.144.142-.337.189-.53.189-.24 0-.433-.094-.53-.236-.145-.141-.193-.33-.193-.518h-.915c0 .424.192.801.482 1.13.289.283.674.472 1.204.472a1.79 1.79 0 001.205-.424c.29-.283.482-.613.482-1.084 0-.612-.289-1.036-.867-1.177.433-.236.674-.613.674-1.084zm3.374 3.58c.53 0 .916-.141 1.205-.376.24-.236.385-.613.385-1.131 0-.471-.144-.848-.385-1.13-.29-.283-.675-.425-1.157-.425h-.386v-1.93h-.915v4.945h1.253v.047zm2.988-4.946h-.916v4.946h.916v-4.946zm-3.422 2.78h.337c.482 0 .723.235.723.706s-.24.707-.723.707h-.337V32.74zm9.253 2.166l1.012-2.26c.048-.095.193-.425.434-1.084a21.144 21.144 0 00-.096 1.79v1.554h.867v-4.946h-.916l-1.108 2.403c-.048.094-.145.376-.386.895.097-.613.097-1.178.097-1.696V29.96h-.868v4.946h.964zm7.23-4.946v4.946h.915v-4.145h1.253v4.145h.867v-4.946h-3.036zm6.505 2.214l-.723-2.214h-.964l1.301 3.533c-.096.283-.192.471-.289.565-.096.095-.24.142-.433.142h-.241v.8h.193c.433 0 .77-.094.963-.235.241-.141.386-.471.579-.942l1.204-3.816h-.963l-.627 2.167zM52 29.961v.848h1.012v4.145h.916V30.81h1.012v-.848H52zm5.735 2.874h1.542v-.801h-1.542v-1.225h1.687v-.8h-2.554v4.945h2.65v-.8h-1.735v-1.32h-.048zm8.626 2.072v-4.946h-.867v4.098h-1.157v-4.098h-.867v4.098h-1.157v-4.098h-.867v4.946h4.915zm2.988-2.072h1.543v-.801h-1.543v-1.225h1.687v-.8h-2.554v4.945h2.65v-.8h-1.734v-1.32h-.049zm6.266 1.79c.289-.283.433-.66.433-1.13h-.867a.744.744 0 01-.193.517.745.745 0 01-.482.189c-.385 0-.627-.236-.627-.707v-1.978c0-.471.193-.754.579-.754.24 0 .385.047.482.188.096.095.192.283.192.566h.916c-.048-.518-.193-.895-.433-1.178-.29-.283-.627-.424-1.157-.424-.482 0-.868.141-1.109.424-.289.283-.385.66-.385 1.178v1.931c0 .518.144.895.385 1.178.29.282.627.424 1.109.424.53-.047.916-.189 1.157-.424zm2.12-4.664v.848h1.012v4.145h.916V30.81h1.012v-.848h-2.94zm7.663 1.413c0-.424-.145-.753-.386-.989a1.362 1.362 0 00-.964-.377h-1.494v4.946h1.542c.434 0 .82-.14 1.06-.376a1.37 1.37 0 00.434-1.037c0-.235-.048-.47-.192-.66-.097-.188-.29-.329-.482-.423.337-.283.482-.66.482-1.084zm-.916 0c0 .424-.193.613-.53.613h-.482v-1.225h.482c.337.047.53.235.53.612zm-1.06 2.732v-1.271h.482c.24 0 .385.047.53.188.144.094.192.283.192.471 0 .424-.24.612-.722.612h-.482zm4.963.801l1.013-2.26c.048-.095.192-.425.433-1.084a21.144 21.144 0 00-.096 1.79v1.554h.867v-4.946h-.915l-1.109 2.403c-.048.094-.193.376-.385.895.096-.613.096-1.178.096-1.696V29.96h-.867v4.946h.963zm5.06 0l.917-1.695h.385v1.695h.916v-4.946h-1.398c-.482 0-.867.142-1.157.424-.289.283-.433.707-.433 1.225 0 .706.289 1.225.819 1.46l-1.012 1.837h.964zm.338-2.685a1.034 1.034 0 01-.193-.612c0-.518.241-.8.675-.8h.482v1.6h-.482c-.193 0-.386-.046-.482-.188z" fill="#005E9E"/><path d="M80.482 10.27v4.569c0 1.696-.916 2.496-2.217 2.496-1.253 0-1.928-.706-1.928-2.26V10.27h-2.795v5.275c0 2.874 1.687 4.193 4.096 4.193 1.157 0 2.265-.424 2.988-1.225v1.084h2.65v-9.328h-2.794zm10.698-.145c-1.3 0-2.361.377-3.036 1.225v-1.084h-2.699v12.625h2.796v-4.334c.722.754 1.735 1.13 2.94 1.13 2.698 0 4.819-1.884 4.819-4.804 0-2.874-2.12-4.758-4.82-4.758zm-.482 7.396c-1.397 0-2.457-.99-2.457-2.591 0-1.602 1.06-2.591 2.457-2.591 1.398 0 2.458.99 2.458 2.59 0 1.603-1.06 2.592-2.458 2.592zm-24.337 2.167c3.084 0 5.301-1.979 5.301-4.805 0-2.78-2.217-4.805-5.3-4.805-3.085 0-5.35 1.979-5.35 4.805.048 2.826 2.313 4.805 5.35 4.805zm0-2.167c-1.398 0-2.506-.99-2.506-2.59 0-1.602 1.06-2.592 2.506-2.592 1.398 0 2.458.99 2.458 2.591 0 1.602-1.012 2.59-2.458 2.59zm-9.88-5.983v-1.225h-2.65v9.28h2.795v-4.38c0-1.79 1.012-2.592 2.554-2.592.193 0 .627 0 .868.047v-2.496c-1.494 0-2.844.424-3.567 1.366z" fill="#F58220"/><path d="M32.193 8.29c-1.012-.566-2.265-.895-3.663-.895-3.952 0-6.602 2.402-6.602 6.218 0 3.862 2.602 6.265 6.602 6.265 1.398 0 2.65-.33 3.663-.895l-.627-2.497c-.915.565-2.024.895-3.036.895-2.12 0-3.71-1.272-3.71-3.768 0-2.45 1.59-3.769 3.71-3.769 1.012 0 2.12.283 3.036.848l.627-2.402zm-19.037 8.62h4.771l.868 2.684h2.891l-4.24-12.012h-3.808L9.445 19.594h2.796l.915-2.685zm2.41-7.208l1.59 4.899h-3.229l1.639-4.9zm-5.639 2.214c0-.566-.096-1.13-.337-1.649-.193-.518-.53-.99-.867-1.366a4.581 4.581 0 00-1.35-.942 4.015 4.015 0 00-1.687-.377H.048v12.012h2.747v-3.439h2.94a3.99 3.99 0 001.686-.377 4.58 4.58 0 001.35-.942c.385-.376.674-.848.867-1.366.193-.47.29-.989.29-1.554zm-2.698 0c0 .235-.049.518-.145.753-.096.236-.241.425-.386.613-.192.188-.385.33-.626.424a2.039 2.039 0 01-.771.141H2.795v-3.91H5.3c.289 0 .53.047.771.189.24.094.434.235.578.424.193.188.29.377.386.612.144.236.193.518.193.754z" fill="#005E9E"/><path d="M59.133 21.668s.096-.142.144-.189l.434-.66c.048-.046.096-.14.144-.188l.049-.047c.048-.047.048-.094.096-.141 0-.047.048-.047.048-.095 0-.047.048-.094.048-.14 0-.048.049-.095.049-.095 0-.047.048-.094.048-.094 0-.047.048-.094.048-.141 0-.048.048-.048.048-.095s.097-.188.097-.188c.192-.424.433-.895.578-1.32H60c-1.831 4.288-6.169 7.302-11.277 7.302a12.317 12.317 0 01-8.193-3.109s-.24-.188-.24-.235l-.242-.236-.144-.141-.193-.189c-.048-.047-.145-.188-.193-.188a18.908 18.908 0 01-.337-.377c-1.639-1.978-2.65-4.475-2.7-7.16l4.772.33c.29 3.439 2.94 5.558 6.699 5.558 1.397 0 2.65-.33 3.663-.895h.048v-6.217h-7.277c.337-1.885 1.783-2.827 3.662-2.827 1.012 0 2.12.283 3.036.895l.627-2.45c-1.012-.565-2.265-.895-3.663-.895-3.662 0-6.265 2.026-6.65 5.323H31.326v.895l2.65.189c.048 3.486 1.446 6.642 3.663 9.044.048.047.096.142.144.142l.096.094.145.141.048.047.097.095.048.047.096.094c2.506 2.308 5.88 3.768 9.59 3.768 4.53 0 8.53-2.12 11.085-5.37-.048-.094.096-.235.145-.282zm-10.17-6.878v2.497c-.337.047-.626.094-.915.094-1.88 0-3.325-.99-3.662-2.874l4.578.283z" fill="#F58220"/><path d="M61.012 9.092C59.132 3.816 53.928 0 47.855 0c-6.988 0-12.819 5.04-13.783 11.635h2.65c.965-5.652 5.977-9.94 12.05-9.94 5.108 0 9.445 3.063 11.276 7.397h.964z" fill="#F58220"/></g><defs><clipPath id="clip0_4109_616"><path fill="#fff" d="M0 0h96v35H0z"/></clipPath></defs></svg>