<svg width="85" height="85" fill="none" xmlns="http://www.w3.org/2000/svg"><path d="M72.395 71.948c0-.536-.272-.967-.814-1.294-.536-.327-1.194-.599-1.974-.814a28.327 28.327 0 01-2.32-.78c-.766-.298-1.42-.789-1.963-1.473-.543-.684-.814-1.55-.814-2.598 0-1.294.517-2.398 1.55-3.313 1.041-.914 2.39-1.371 4.049-1.371.654 0 1.286.078 1.895.234.61.149 1.108.327 1.495.535.394.2.736.41 1.026.625.297.208.51.39.636.546l.2.223-2.052 2.175a4.49 4.49 0 00-.379-.38c-.156-.155-.49-.36-1.004-.613a3.543 3.543 0 00-1.583-.379c-.654 0-1.182.167-1.584.502-.394.335-.59.74-.59 1.216 0 .535.267.966.802 1.293.543.32 1.197.591 1.963.814.773.223 1.546.484 2.32.781.78.297 1.442.788 1.985 1.472.542.684.814 1.55.814 2.599 0 1.48-.54 2.687-1.617 3.624-1.071.937-2.55 1.405-4.439 1.405a8.385 8.385 0 01-2.163-.279c-.692-.178-1.264-.394-1.718-.646a10.49 10.49 0 01-1.182-.77c-.342-.26-.587-.48-.736-.658l-.257-.279 2.064-2.052c.104.12.249.275.434.469.194.186.618.438 1.272.758s1.338.48 2.052.48c.825 0 1.468-.194 1.93-.58.468-.387.702-.878.702-1.472zm-26.493 4.685V60.64h7.082c1.584 0 2.892.509 3.926 1.528 1.04 1.01 1.56 2.252 1.56 3.724 0 .64-.1 1.238-.3 1.796-.2.557-.439 1.007-.714 1.35a6.327 6.327 0 01-.825.88c-.283.246-.524.413-.725.502l-.29.156 3.424 6.056h-3.658l-3.078-5.599h-2.967v5.599h-3.435zm9.145-10.74c0-.624-.208-1.14-.624-1.55-.41-.409-.926-.613-1.55-.613h-3.536v4.227h3.535c.625 0 1.142-.197 1.55-.592.417-.401.625-.892.625-1.472zM31.67 73.555h8.564v3.078h-12V60.64H40v3.089h-8.33v3.2H40v3.078h-8.33v3.547zM9.55 60.64h5.945c2.327 0 4.279.774 5.855 2.32 1.576 1.547 2.364 3.439 2.364 5.677 0 2.238-.788 4.13-2.364 5.676-1.576 1.547-3.528 2.32-5.855 2.32H9.55V60.64zm5.945 3.09h-2.51v9.825h2.51c1.323 0 2.453-.476 3.39-1.428.937-.951 1.405-2.111 1.405-3.48 0-1.375-.457-2.538-1.371-3.49-.915-.951-2.056-1.427-3.424-1.427zm59.983-12.708l-11.642.002V35.03h3.435v12.915l8.207-.002v3.078zm-27.111.002l4.368-15.993h3.435l-4.368 15.993h-3.435zM32.09 47.198c.699.721 1.535 1.082 2.51 1.082.973 0 1.806-.36 2.497-1.082.692-.72 1.037-1.617 1.037-2.687v-9.48h3.424v9.48c0 1.948-.662 3.58-1.985 4.895-1.324 1.309-2.985 1.963-4.985 1.963-1.993 0-3.65-.654-4.974-1.962-1.323-1.316-1.985-2.948-1.985-4.896v-9.48h3.424v9.48c0 1.063.345 1.959 1.037 2.687zM16.8 51.024H9.55V35.03h6.86c1.45 0 2.646.424 3.59 1.272.952.847 1.428 1.832 1.428 2.955 0 .424-.06.829-.178 1.215-.12.38-.272.696-.458.949a5.72 5.72 0 01-.557.658 2.746 2.746 0 01-.447.379l-.19.111c.075.03.168.075.28.134.119.052.33.19.635.413.305.215.573.453.803.713.23.26.439.617.625 1.071.193.446.29.926.29 1.439 0 1.278-.51 2.379-1.528 3.3-1.019.923-2.32 1.384-3.903 1.384zm-3.814-2.855h3.646c.625 0 1.142-.197 1.55-.591a1.93 1.93 0 00.625-1.461c0-.58-.208-1.067-.624-1.461-.41-.402-.926-.603-1.55-.603h-3.647v4.116zm3.19-10.283h-3.19v3.435h3.19c.564 0 1.01-.156 1.338-.468.327-.313.49-.729.49-1.25 0-.52-.163-.936-.49-1.248-.328-.313-.774-.469-1.339-.469zm50.966-15.222h8.33v3.078H63.708V9.75h11.766v3.09h-8.331v3.2h8.33v3.078h-8.33v3.546zM42.613 9.75h14.558v3.09h-5.562v12.902h-3.423V12.84h-5.573V9.75zM28.07 25.742L32.438 9.75h3.435l-4.368 15.992H28.07zM17.032 21.05c0-.536-.272-.967-.815-1.294-.535-.328-1.193-.599-1.973-.815a28.354 28.354 0 01-2.32-.78c-.766-.298-1.42-.788-1.963-1.472-.543-.684-.814-1.55-.814-2.599 0-1.293.517-2.397 1.55-3.312 1.04-.915 2.39-1.372 4.048-1.372a7.61 7.61 0 011.896.234c.61.15 1.108.328 1.495.536.394.2.736.409 1.026.624.297.208.509.39.635.547l.201.223-2.052 2.175a4.49 4.49 0 00-.38-.38c-.155-.156-.49-.36-1.003-.613a3.543 3.543 0 00-1.583-.38c-.655 0-1.183.168-1.584.503-.394.334-.591.74-.591 1.215 0 .536.268.967.803 1.294.542.32 1.197.59 1.963.814.773.223 1.546.483 2.32.78a4.59 4.59 0 011.984 1.473c.543.684.814 1.55.814 2.598 0 1.48-.539 2.688-1.617 3.625-1.07.936-2.55 1.405-4.438 1.405a8.38 8.38 0 01-2.164-.279c-.691-.178-1.264-.394-1.717-.647a10.52 10.52 0 01-1.182-.77c-.342-.26-.588-.479-.736-.657l-.257-.28 2.063-2.051c.104.119.25.275.435.468.194.186.617.439 1.272.759.654.32 1.338.48 2.052.48.825 0 1.468-.194 1.929-.58.468-.387.703-.878.703-1.473z" fill="#fff"/></svg>