<?xml version="1.0" encoding="utf-8"?><svg viewBox="0 0 88 88" xmlns="http://www.w3.org/2000/svg" xmlns:xlink="http://www.w3.org/1999/xlink"><style>:root>svg{display:none}:root>svg:target{display:block}</style><svg fill="none" viewBox="0 0 88 88" id="icon-arrow-next" xmlns="http://www.w3.org/2000/svg"><path d="M32 68l24-24-24-24" stroke="currentColor" stroke-width="1.719"/></svg><svg fill="none" viewBox="0 0 88 88" id="icon-arrow-prev" xmlns="http://www.w3.org/2000/svg"><path d="M56 20L32 44l24 24" stroke="currentColor" stroke-width="1.719"/></svg><svg fill="none" viewBox="0 0 40 40" id="icon-phone" xmlns="http://www.w3.org/2000/svg"><circle cx="20" cy="20" r="19.5" stroke="currentColor"/><path fill-rule="evenodd" clip-rule="evenodd" d="M25.926 21.685a2.722 2.722 0 00-2.328-.53c-.606.25-.997 1.2-1.388 1.673a.578.578 0 01-.745.168 10.547 10.547 0 01-5.271-4.51.632.632 0 01.083-.874c.436-.431.757-.965.932-1.553a3.38 3.38 0 00-.429-1.86 4.35 4.35 0 00-1.35-2.035 1.866 1.866 0 00-2.003.306 4.11 4.11 0 00-1.425 3.255c.002.345.046.688.13 1.022.217.804.55 1.571.988 2.278.316.542.661 1.067 1.034 1.572a15.87 15.87 0 004.48 4.147c.877.548 1.814.994 2.793 1.33 1.018.46 2.141.636 3.25.51a3.906 3.906 0 002.944-2.184c.16-.349.21-.739.14-1.116-.168-.772-1.202-1.227-1.835-1.6z" fill="currentColor"/></svg></svg>