<?xml version="1.0" encoding="utf-8"?><svg viewBox="0 0 88 88" xmlns="http://www.w3.org/2000/svg" xmlns:xlink="http://www.w3.org/1999/xlink"><style>:root>svg{display:none}:root>svg:target{display:block}</style><svg fill="none" viewBox="0 0 88 88" id="icon-arrow-next" xmlns="http://www.w3.org/2000/svg"><path d="M32 68l24-24-24-24" stroke="currentColor" stroke-width="1.719"/></svg><svg fill="none" viewBox="0 0 40 40" id="icon-arrow-next-bold" xmlns="http://www.w3.org/2000/svg"><path d="M11 2l18 18-18 18" stroke="currentColor" stroke-width="3"/></svg><svg fill="none" viewBox="0 0 40 28" id="icon-arrow-next-dark" xmlns="http://www.w3.org/2000/svg"><path d="M1 13.953h37.424" stroke="#00F" stroke-linecap="round"/><path d="M25.758 1l12.954 12.954L25.758 26.91" stroke="#00F" stroke-linecap="round" stroke-linejoin="round"/></svg><svg fill="none" viewBox="0 0 88 88" id="icon-arrow-prev" xmlns="http://www.w3.org/2000/svg"><path d="M56 20L32 44l24 24" stroke="currentColor" stroke-width="1.719"/></svg><svg fill="none" viewBox="0 0 40 40" id="icon-arrow-prev-bold" xmlns="http://www.w3.org/2000/svg"><path d="M29 38L11 20 29 2" stroke="currentColor" stroke-width="3"/></svg><svg fill="none" viewBox="0 0 20 12" id="icon-caret" xmlns="http://www.w3.org/2000/svg"><path d="M1.512 1.723l8.553 8.552 8.552-8.552" stroke="currentColor" stroke-width="2" stroke-linecap="round" stroke-linejoin="round"/></svg><svg fill="none" viewBox="0 0 24 24" id="icon-caret-orange" xmlns="http://www.w3.org/2000/svg"><path d="M3.447 7.727L12 16.279l8.552-8.552" stroke="#FF690E" stroke-width="2" stroke-linecap="round" stroke-linejoin="round"/></svg><svg fill="none" viewBox="0 0 12 12" id="icon-check" xmlns="http://www.w3.org/2000/svg"><path d="M2 5.1L5.545 9 11 3" stroke="currentColor" stroke-linecap="round" stroke-linejoin="round"/></svg><svg fill="none" viewBox="0 0 10 8" id="icon-check-blue" xmlns="http://www.w3.org/2000/svg"><path d="M1 3.5L4.5 7 9 1" stroke="#003" stroke-linecap="round" stroke-linejoin="round"/></svg><svg fill="none" viewBox="0 0 24 24" id="icon-close" xmlns="http://www.w3.org/2000/svg"><path d="M1 1l22 22M1 23L23 1" stroke="currentColor" stroke-linecap="round"/></svg><svg fill="none" viewBox="0 0 64 64" id="icon-info" xmlns="http://www.w3.org/2000/svg"><circle cx="32" cy="32" r="29.5" stroke="currentColor"/><path d="M32 13.5v30M32 48v2" stroke="currentColor"/></svg><svg fill="none" viewBox="0 0 17 17" id="icon-info-question" xmlns="http://www.w3.org/2000/svg"><circle cx="8.5" cy="8.5" r="8" stroke="currentColor"/><circle cx="8.5" cy="8.5" r="8" stroke="currentColor" stroke-opacity=".2"/><path d="M8.893 10.951h-.997a2.927 2.927 0 01-.069-.636c0-.416.095-.792.284-1.128.19-.337.42-.616.692-.838l.817-.65c.272-.213.5-.462.685-.748.189-.29.283-.61.283-.962 0-.47-.186-.872-.56-1.204-.37-.332-.867-.498-1.495-.498-.341 0-.65.055-.927.166-.277.106-.492.235-.644.388-.152.152-.279.304-.38.456a1.815 1.815 0 00-.201.381l-.042.173-.92-.284a9.15 9.15 0 01.076-.249c.032-.101.127-.281.284-.54.157-.258.341-.486.553-.685.213-.198.515-.38.907-.546.392-.166.824-.25 1.294-.25.9 0 1.645.268 2.235.803.59.53.886 1.16.886 1.89 0 .415-.07.786-.208 1.114a2.16 2.16 0 01-.505.768c-.203.189-.427.383-.671.581-.24.198-.461.383-.664.554-.203.17-.374.401-.512.692a2.26 2.26 0 00-.201.968v.284zm-1.01 2.353a.707.707 0 01-.194-.512c0-.208.064-.376.194-.505a.694.694 0 01.512-.2.67.67 0 01.505.2c.134.129.2.297.2.505a.694.694 0 01-.2.512.683.683 0 01-.505.194.707.707 0 01-.512-.194z" fill="currentColor"/></svg><svg fill="none" viewBox="0 0 9 10" id="icon-li-star" xmlns="http://www.w3.org/2000/svg"><path d="M4.417.5A7.84 7.84 0 010 4.917a7.84 7.84 0 014.417 4.417 7.84 7.84 0 014.417-4.417A7.84 7.84 0 014.417.5z" fill="#003"/></svg><svg fill="none" viewBox="0 0 40 40" id="icon-phone" xmlns="http://www.w3.org/2000/svg"><circle cx="20" cy="20" r="19.5" stroke="currentColor"/><path fill-rule="evenodd" clip-rule="evenodd" d="M25.926 21.685a2.722 2.722 0 00-2.328-.53c-.606.25-.997 1.2-1.388 1.673a.578.578 0 01-.745.168 10.547 10.547 0 01-5.271-4.51.632.632 0 01.083-.874c.436-.431.757-.965.932-1.553a3.38 3.38 0 00-.429-1.86 4.35 4.35 0 00-1.35-2.035 1.866 1.866 0 00-2.003.306 4.11 4.11 0 00-1.425 3.255c.002.345.046.688.13 1.022.217.804.55 1.571.988 2.278.316.542.661 1.067 1.034 1.572a15.87 15.87 0 004.48 4.147c.877.548 1.814.994 2.793 1.33 1.018.46 2.141.636 3.25.51a3.906 3.906 0 002.944-2.184c.16-.349.21-.739.14-1.116-.168-.772-1.202-1.227-1.835-1.6z" fill="currentColor"/></svg><svg fill="none" viewBox="0 0 40 40" id="icon-phone-circle" xmlns="http://www.w3.org/2000/svg"><circle cx="20" cy="20" r="20" fill="currentColor"/><path fill-rule="evenodd" clip-rule="evenodd" d="M25.926 22.685a2.722 2.722 0 00-2.328-.53c-.606.25-.997 1.2-1.388 1.673a.578.578 0 01-.745.168 10.547 10.547 0 01-5.271-4.51.632.632 0 01.083-.874c.436-.431.757-.965.932-1.553a3.38 3.38 0 00-.429-1.86 4.35 4.35 0 00-1.35-2.035 1.866 1.866 0 00-2.003.306 4.11 4.11 0 00-1.425 3.255c.002.345.046.688.13 1.022.217.804.55 1.571.988 2.278.316.542.661 1.067 1.034 1.572a15.87 15.87 0 004.48 4.147c.877.548 1.814.994 2.793 1.33 1.018.46 2.141.636 3.25.51a3.906 3.906 0 002.944-2.184c.16-.349.21-.739.14-1.116-.168-.772-1.202-1.227-1.835-1.6z" fill="#fff"/></svg><svg fill="none" viewBox="0 0 32 32" id="icon-repeat" xmlns="http://www.w3.org/2000/svg"><path d="M30.868 14c-.977-7.339-7.261-13-14.867-13C9.356 1 3.72 5.32 1.75 11.305M1.133 18C2.11 25.339 8.394 31 16 31c6.346 0 11.771-3.94 13.963-9.507" stroke="currentColor" stroke-width="2"/><path d="M1 0v11.5h10M31 32V20.5H21" stroke="currentColor" stroke-width="2"/></svg><svg fill="none" viewBox="0 0 35 35" id="icon-search" xmlns="http://www.w3.org/2000/svg"><circle cx="14.5" cy="14.5" r="13.5" stroke="currentColor" stroke-width="2"/><path d="M24 24l10 10" stroke="currentColor" stroke-width="2"/></svg><svg fill="none" viewBox="0 0 35 35" id="icon-search-white" xmlns="http://www.w3.org/2000/svg"><circle cx="14.5" cy="14.5" r="13.5" stroke="#fff" stroke-width="2"/><path d="M24 24l10 10" stroke="#fff" stroke-width="2"/></svg><svg fill="none" viewBox="0 0 24 24" id="icon-share" xmlns="http://www.w3.org/2000/svg"><path fill-rule="evenodd" clip-rule="evenodd" d="M14.745 20.769l6.608-7.954a1.117 1.117 0 000-1.37l-6.608-8.207c-.652-.84-1.998-.378-1.998.685v3.924a.516.516 0 01-.502.509c-7.05.25-10.923 5.767-9.566 10.972.07.267.433.28.554.032 1.552-3.158 4.176-3.751 9.055-3.39.26.019.46.236.46.496v3.617c0 1.063 1.345 1.525 1.997.686z" fill="currentColor"/></svg><svg fill="none" viewBox="0 0 16 16" id="icon-sort-down" xmlns="http://www.w3.org/2000/svg"><path d="M3 4h10M3 8h7M3 12h5" stroke="currentColor" stroke-linecap="round" stroke-linejoin="round"/></svg><svg fill="none" viewBox="0 0 16 16" id="icon-sort-up" xmlns="http://www.w3.org/2000/svg"><path d="M3 4h5M3 8h7M3 12h10" stroke="currentColor" stroke-linecap="round" stroke-linejoin="round"/></svg><svg fill="none" viewBox="0 0 74 74" id="icon-vr" xmlns="http://www.w3.org/2000/svg"><path d="M69.234 0a4 4 0 014 4v34.902a4 4 0 01-4 4H53.173a6 6 0 01-5.024-2.717l-4.877-7.467-4.143-6.341c-1.184-1.812-3.84-1.812-5.023 0l-9.021 13.808a6 6 0 01-5.024 2.717H4a4 4 0 01-4-4V4a4 4 0 014-4h65.234zm-49.3 12.422a7.656 7.656 0 100 15.312 7.656 7.656 0 000-15.312zm33.367 0a7.656 7.656 0 100 15.312 7.656 7.656 0 000-15.312zM25.049 61.595v-10.77a4 4 0 014-4h5.496v25.76H.54a.149.149 0 01-.016-.297l20.236-2.06c.244-.025.237-.384-.008-.399L.456 68.596c-.24-.015-.254-.365-.016-.399l17.062-2.425c.239-.033.225-.382-.016-.397L.397 64.322c-.243-.015-.252-.37-.01-.398l14.675-1.716c.241-.028.232-.382-.01-.398L.584 60.879c-.242-.016-.252-.367-.012-.398l11.413-1.438c.24-.03.231-.378-.008-.398l-11.095-.87c-.235-.019-.25-.357-.019-.397l8.331-1.45c.227-.039.219-.368-.01-.395L.55 54.51c-.226-.027-.239-.35-.016-.395l5.726-1.14c.22-.044.21-.362-.012-.393l-5.922-.834c-.218-.03-.233-.34-.02-.392l3.71-.91c.202-.049.204-.334.004-.387l-3.703-.99c-.213-.058-.19-.368.029-.393l3.337-.38-3.602-1.47h12.395l12.572 14.77zM58.227 46.64c8.16 0 12.407 2.696 12.407 7.209 0 5.285-6.386 5.867-7.426 6.094-.096.023-.054.518 0 .615.582.501 2.073.928 4.357 3.475 1.004 1.12 4.363 6.303 5.432 8.477h-9.872c-1.3-2.937-4.09-8.44-8.135-9.826-2.526-.867-4.783-.717-7.033-.717V72.51h-9.39V46.64h19.66zM48.398 57.52h9.061c1.664 0 4.521-.694 4.521-3.014s-2.857-3.014-4.521-3.014h-9.06v6.028z" fill="#fff"/></svg><svg fill="none" viewBox="0 0 31 31" id="icon-whatsapp" xmlns="http://www.w3.org/2000/svg"><path d="M.08 30.528l2.155-8.012A14.817 14.817 0 01.68 12.258a14.835 14.835 0 015.556-8.767 14.88 14.88 0 0119.431 1.256 14.82 14.82 0 011.51 19.381 14.866 14.866 0 01-8.71 5.66c-3.49.779-7.145.275-10.294-1.42L.08 30.529zm8.483-5.158l.501.297A12.03 12.03 0 0023.613 23.9a11.977 11.977 0 002.009-14.494 12.006 12.006 0 00-5.799-5.12 12.031 12.031 0 00-7.723-.525 12.014 12.014 0 00-6.44 4.287 11.98 11.98 0 00-2.483 7.32 11.843 11.843 0 001.756 6.217l.313.516-1.204 4.472 4.521-1.203z" fill="currentColor"/><path fill-rule="evenodd" clip-rule="evenodd" d="M20.712 17.423a2.478 2.478 0 00-2.12-.482c-.552.228-.908 1.092-1.265 1.524a.526.526 0 01-.678.152 9.608 9.608 0 01-4.802-4.107.576.576 0 01.077-.796c.397-.393.689-.88.848-1.415.035-.59-.1-1.178-.39-1.694a3.963 3.963 0 00-1.23-1.854 1.7 1.7 0 00-1.824.28 3.744 3.744 0 00-1.298 2.963c0 .315.04.627.118.932.197.732.5 1.43.9 2.075.288.494.602.971.941 1.431a14.455 14.455 0 004.08 3.778 12.3 12.3 0 002.546 1.21c.926.42 1.95.581 2.96.466a3.557 3.557 0 002.681-1.99c.147-.317.191-.672.128-1.016-.153-.703-1.095-1.118-1.672-1.457z" fill="currentColor"/></svg></svg>